<svg xmlns="http://www.w3.org/2000/svg" height="48" viewBox="0 -960 960 960" width="48"><path d="M289.478-629.152v-76.783h567.957v76.783H289.478Zm0 187.543v-77.543h567.957v77.543H289.478Zm0 186.544v-76.544h567.957v76.544H289.478ZM142.18-627.109q-16.912 0-28.144-11.863t-11.232-28.639q0-15.674 11.232-27.76 11.232-12.086 28.644-12.086 15.891 0 27.301 12.101 11.41 12.102 11.41 28.947 0 15.667-11.535 27.483-11.535 11.817-27.676 11.817Zm0 186.783q-16.912 0-28.144-11.478-11.232-11.479-11.232-29.233 0-15.633 11.232-27.635 11.232-12.002 28.644-12.002 15.891 0 27.301 12.127 11.41 12.127 11.41 28.01 0 17.254-11.535 28.733-11.535 11.478-27.676 11.478Zm0 186.544q-16.912 0-28.144-11.864-11.232-11.863-11.232-28.638 0-16.674 11.232-28.26 11.232-11.586 28.644-11.586 15.891 0 27.301 11.713 11.41 11.714 11.41 28.834 0 16.167-11.535 27.984t-27.676 11.817Z"/></svg>