<svg xmlns="http://www.w3.org/2000/svg" width="25" height="25" viewBox="0 0 25 25" fill="none">
  <g clip-path="url(#clip0_6_1375)">
    <path d="M18.0332 13.9443H13.0332V18.9443C13.0332 19.4943 12.5832 19.9443 12.0332 19.9443C11.4832 19.9443 11.0332 19.4943 11.0332 18.9443V13.9443H6.0332C5.4832 13.9443 5.0332 13.4943 5.0332 12.9443C5.0332 12.3943 5.4832 11.9443 6.0332 11.9443H11.0332V6.94431C11.0332 6.39431 11.4832 5.94431 12.0332 5.94431C12.5832 5.94431 13.0332 6.39431 13.0332 6.94431V11.9443H18.0332C18.5832 11.9443 19.0332 12.3943 19.0332 12.9443C19.0332 13.4943 18.5832 13.9443 18.0332 13.9443Z" fill="#C1C1C4"/>
  </g>
  <defs>
    <clipPath id="clip0_6_1375">
      <rect width="24" height="24" fill="white" transform="translate(0.0332031 0.944336)"/>
    </clipPath>
  </defs>
</svg>