<svg xmlns="http://www.w3.org/2000/svg" height="48" viewBox="0 -960 960 960" width="48"><path d="M275.261-271.391h69.174v-285.457h-69.174v285.457Zm170.413 0h69.174v-417.218h-69.174v417.218Zm170.13 0h69.174v-157.935h-69.174v157.935ZM182.152-104.848q-30.745 0-54.025-23.279-23.279-23.28-23.279-54.025v-595.696q0-30.844 23.279-54.194 23.28-23.349 54.025-23.349h595.696q30.844 0 54.194 23.349 23.349 23.35 23.349 54.194v595.696q0 30.745-23.349 54.025-23.35 23.279-54.194 23.279H182.152Zm0-77.304h595.696v-595.696H182.152v595.696Zm0-595.696v595.696-595.696Z"/></svg>